<svg class="icon" style="width: 1em;height: 1em;vertical-align: middle;fill: #666;overflow: hidden;" viewBox="0 0 1024 1024" version="1.1" xmlns="http://www.w3.org/2000/svg" p-id="1860"><path d="M511.501838 1007.007135c-233.859459 0-421.528216-102.483027-440.818162-239.394594-3.072-11.125622-1.411459-23.109189 5.147675-32.989406l175.131676-264.053621a316.886486 316.886486 0 0 1-64.567351-162.096433 130.463135 130.463135 0 0 1-1.549838-19.64973v-33.487567c0-22.472649 18.321297-40.849297 41.264432-41.402811 186.838486-4.566486 298.067027-54.548757 313.177946-140.786162a41.513514 41.513514 0 0 1 23.801081-30.498595c5.590486-2.573838 12.564757-4.28973 18.764108-4.28973h52.196325c113.47027 0 205.824 74.115459 205.824 165.25146v85.241081c0 11.07027-1.356108 22.140541-4.040649 32.934054a313.067243 313.067243 0 0 1-62.906811 148.839784l175.076325 263.99827c7.721514 11.623784 8.911568 26.236541 3.376432 38.884324-23.74573 133.95027-209.366486 233.499676-439.877189 233.499676zM156.367568 765.343135c20.203243 78.598919 155.675676 158.830703 355.161946 158.830703 200.288865 0 335.982703-80.812973 355.355675-159.716324l-181.995243-274.404325a40.738595 40.738595 0 0 1 4.511135-50.757189 233.029189 233.029189 0 0 0 62.823784-130.684541c0.276757-1.826595 0.636541-3.625514 1.107027-5.396756 1.273081-4.704865 1.937297-9.520432 1.937297-14.391352V203.609946c0-44.668541-55.517405-82.418162-121.219459-82.418162h-20.313946c-28.367568 78.377514-114.355892 159.660973-343.759568 173.775567l0.304433 2.048 0.332108 2.684541c4.843243 52.445405 26.928432 100.711784 63.875459 139.596108 13.201297 13.920865 15.027892 34.816 4.48346 50.757189L156.367568 765.343135z m355.521729-205.574919c-36.808649 0-71.956757-7.666162-98.995892-21.587027a40.96 40.96 0 0 1-17.712432-55.960216 42.758919 42.758919 0 0 1 57.177946-17.352649c14.861838 7.666162 36.559568 12.066595 59.530378 12.066595 22.998486 0 44.751568-4.400432 59.668757-12.066595a42.81427 42.81427 0 0 1 57.15027 17.380325 40.96 40.96 0 0 1-17.767783 55.904865c-27.039135 13.948541-62.242595 21.614703-99.051244 21.614702z" p-id="1861"></path></svg>