<svg width="22" height="21" viewBox="0 0 22 21" fill="none" xmlns="http://www.w3.org/2000/svg"><path fill-rule="evenodd" clip-rule="evenodd" d="M11 1.74286C6.02955 1.74286 2 5.7724 2 10.7429C2 15.7133 6.02955 19.7429 11 19.7429C15.9705 19.7429 20 15.7133 20 10.7429C20 5.7724 15.9705 1.74286 11 1.74286ZM11.0003 3.37912C15.0609 3.37912 18.3639 6.68212 18.3639 10.7428C18.3639 14.8034 15.0609 18.1064 11.0003 18.1064C6.93963 18.1064 3.63663 14.8034 3.63663 10.7428C3.63663 6.68212 6.93963 3.37912 11.0003 3.37912Z" fill="#fff"></path><path fill-rule="evenodd" clip-rule="evenodd" d="M9.57596 6.88109C9.76987 7.228 9.91387 7.60028 10.0047 7.98564V7.98564C10.0734 8.34728 10.0481 8.71873 9.93023 9.06728V9.06728C9.04905 9.27264 8.14905 9.39291 7.24496 9.42809V9.42809C7.22369 9.42809 7.19832 9.49355 7.17051 9.62446V9.62446C7.18851 10.0172 7.30714 10.3968 7.5166 10.729V10.729C7.72278 10.9908 7.83732 10.8771 8.07705 10.8035V10.8035C8.55978 10.6611 9.06541 10.6055 9.56778 10.639V10.639C9.74123 10.7535 8.95905 11.8425 8.74387 12.1698V12.1698C8.52951 12.4979 7.68187 13.5525 7.24496 13.7006V13.7006C6.80887 13.8471 6.91605 14.0852 7.31941 14.3969V14.3969C7.75387 14.6481 8.28323 14.6775 8.74387 14.4787V14.4787C9.15132 14.2693 9.48678 13.9445 9.70769 13.5444V13.5444C9.83941 13.2171 10.8777 10.8599 11.0012 10.6472V10.6472C11.1248 10.4345 11.2982 10.3854 11.5625 10.2945V10.2945C12.2326 10.0982 12.9313 10.0147 13.6292 10.0491V10.0491C14.2061 10.1481 14.7002 10.1718 14.7583 9.62364V9.62364C14.8197 9.11473 14.5783 8.61728 14.1406 8.34646V8.34646C13.6022 8.25482 13.0483 8.31455 12.5427 8.51828V8.51828C12.2948 8.60091 11.6443 8.89464 11.5625 8.821V8.821C11.4799 8.74818 11.7761 8.05109 11.4799 7.471V7.471C11.1763 6.97437 10.638 6.66591 10.0538 6.65118V6.65118C9.6676 6.65118 9.51051 6.832 9.57596 6.88109V6.88109Z" fill="#fff"></path><path fill-rule="evenodd" clip-rule="evenodd" d="M11.4674 11.4647C11.3856 11.5555 11.3782 11.6905 11.451 11.7887V11.7887C11.5255 11.9106 14.0209 14.1099 14.3089 14.3447V14.3447C14.5969 14.5795 14.7295 14.4994 15.0322 13.5339V13.5339C15.3374 12.5676 13.8303 12.0325 13.386 11.8133V11.8133C12.9377 11.6218 12.468 11.486 11.9861 11.4083V11.4083C11.9207 11.4042 11.8356 11.396 11.7505 11.396V11.396C11.6408 11.396 11.532 11.4099 11.4674 11.4647V11.4647Z" fill="#fff"></path></svg>