<svg width="22" height="22" xmlns="http://www.w3.org/2000/svg" viewBox="0 0 200 200">
    <path d="M17.5 100c0-45.563 36.937-82.5 82.501-82.5 44.504 0 80.778 35.238 82.442 79.334l-7.138-7.137a7.5 7.5 0 0 0-10.607 10.606l20.001 20a7.5 7.5 0 0 0 10.607 0l20.002-20a7.5 7.5 0 0 0-10.607-10.606l-7.245 7.245c-1.616-52.432-44.63-94.441-97.455-94.441-53.848 0-97.501 43.652-97.501 97.5s43.653 97.5 97.501 97.5c32.719 0 61.673-16.123 79.346-40.825a7.5 7.5 0 0 0-12.199-8.728c-14.978 20.934-39.472 34.553-67.147 34.553-45.564 0-82.501-36.937-82.501-82.5zm109.888-12.922c9.215 5.743 9.215 20.101 0 25.843l-29.62 18.46c-9.215 5.742-20.734-1.436-20.734-12.922V81.541c0-11.486 11.519-18.664 20.734-12.921l29.62 18.459z" fill="#ffffff"></path>
</svg>